# xmcd
#
# Track frame offsets: 
#        150
#        13661
#        30571
#        45667
#        58573
#        73291
#        91359
#        108001
#
# Disc length: 1636 seconds
#
# Revision: 0
# Processed by: cddbd v1.5.2PL0 Copyright (c) Steve Scherf et al.
# Submitted via: ExactAudioCopy v1.0b1
#
DISCID=61066208
DTITLE=Jeff Middleton - Simple Stupid Songs
DYEAR=1900
DGENRE=Country
TTITLE0=What's The Point
TTITLE1=Barely Getting By
TTITLE2=Stronger Man
TTITLE3=Bittersweet
TTITLE4=1492
TTITLE5=What If
TTITLE6=Every Now And Then
TTITLE7=Simple Stupid
EXTD=
EXTT0=
EXTT1=
EXTT2=
EXTT3=
EXTT4=
EXTT5=
EXTT6=
EXTT7=
PLAYORDER=
